<svg xmlns="http://www.w3.org/2000/svg" width="354.694" height="687.181" viewBox="0 0 354.694 687.181"><defs><style>.a{fill:#181820;}.a,.aa,.ab,.ac,.ad,.b,.c,.d,.e,.f,.g,.h,.i,.j,.k,.l,.m,.n,.o,.p,.q,.r,.s,.t,.u,.v,.w,.x,.y,.z{fill-rule:evenodd;}.b{fill:#121218;}.c{fill:#27262d;}.d{fill:#2c2a31;}.e{fill:#323239;}.f{fill:#86858a;}.g{fill:#414146;}.h{fill:#5a5a5f;}.i{fill:#49484e;}.j{fill:#747479;}.k{fill:#353337;}.l{fill:#5a595d;}.m{fill:#55555a;}.n{fill:#222;}.o{fill:#5b5b5c;}.p{fill:#142144;}.q{fill:#535354;}.r{fill:#121b3b;}.s{fill:#151835;}.t{fill:#112235;}.u{fill:#0f1634;}.v{fill:#15162b;}.w{fill:#344f6c;}.x{fill:#273659;}.y{fill:#405e7a;}.z{fill:#3f607f;}.aa{fill:#31394a;}.ab{fill:#0e0d2f;}.ac{fill:#2c4659;}.ad{fill:#6e889a;}</style></defs><g transform="translate(0 0)"><path class="a" d="M89.881,673.8c-.464-4.665-.172-57.339-.16-63.282l.022-190.233c-.132-84.486.458-169.066-.006-253.515-.116-21.08.195-42.219,0-63.282-.105-11.111-.77-18.382,2.747-28.743a38.124,38.124,0,0,1,5.7-10.307A41.936,41.936,0,0,1,129.1,47.7c3.6-.174,29.744-.3,31.844.1,10.27,1.922,7.165,13.694,12.594,19.449l4.085,3.587c6.611,4.056,12.569,2.885,20.971,2.885h94.728c7.69,0,24.3,1.033,30.313-1.351,10.8-4.277,10.6-15.03,12.374-18.888,1.994-4.334,5.791-5.833,10.5-5.833q7.959,0,15.918,0c11.636,0,18.4-.526,28.062,4.015,15.15,7.119,24.2,21.939,24.121,39.4-.352,73.733-.006,148.3-.006,222.068V661.377c0,11.3.106,18.272-4.594,27.307a41.919,41.919,0,0,1-15.094,16.486c-7.709,4.93-14.768,6.4-25.5,6.4H147.742c-10.286,0-20.565.893-29.619-2.228A42.264,42.264,0,0,1,89.881,673.8Zm2.71,16.473.363,1.637c-7.422-6.534-8.383-19.529-8.382-31.7L84.558,99.219c0-8.658.949-26.021,8.175-31.528l1.788-2.169c-.126,1.515-1.878,5.467-2.487,7.127-3.5,9.541-3.294,15.889-3.279,26.57.129,92.668-.442,185.418-.441,277.973l-.7,237.986c.011,8.834-.236,51.983.556,58.974,1.033,9.122,2.917,10.59,4.42,16.122ZM291.415,56.191l.756.359a5.686,5.686,0,0,1,3.3,7.995c-3.249,6.972-13.787,2.8-11.38-4.531C284.816,57.8,288.413,54.445,291.415,56.191ZM212.057,67.95l-1.257-.931c-6.666-2.828.889-17.554,9.46-10.793a7.391,7.391,0,0,1-2.4,12.884C216.1,69.591,212.715,69.633,212.057,67.95ZM414.72,69.52c.552,2.565,3.434,4.493,5.31,14.833,1.137,6.268,1.007,12.276,1.007,18.747l-.02,557.5c0,8.8-.307,17.714-4.169,25.674-2.03,4.184-2.09,3.2-4.1,5.689l-.363-.434c-.1-1.3,1.964-5.212,2.98-8.51,3.279-10.642,2.009-22.028,2.039-33.289l-.335-137.46c-.334-1.4-.063-.6-.9-1.419l-.068,162.729c1.274-2.577-.362-486.913.188-579.408.065-10.878-1.3-18.592-6.071-27.895-.483-.941-1.417-2.237-1.655-2.823l.233.617c.56.54,2.789,1.614,4.436,3.406,1.028,1.118,1.107.98,1.48,2.043ZM188.186,57.55l2.973-.447.426.013a5.142,5.142,0,0,1,.643,9.739,6.108,6.108,0,0,1-2.571.33c-2.334-.135-2.1-1.076-2.108-1.1l-1.3-1.27a2.683,2.683,0,0,1-.984-2.184,4.992,4.992,0,0,1,2.921-5.085Zm43.791,6.968c-1.266-1.336-2.351-3.09-.42-4.538,1.526-1.144,18.123-.564,20.619-.564,2.562,0,19.349-.675,20.813.736,1.624,1.566.49,3.121-.633,4.331C268.99,65.136,235.748,65.093,231.976,64.518Zm87.6,2.015c-.549.592.167.215-.765.7-1.228.639-3.811.271-5.039-.465-5.538-3.321-1.377-13.119,4.584-10.359,2.243,1.4-.054.5,1.359,2.033a4.092,4.092,0,0,1,1.068,1.383c1.315,2.88,1.439,4.813-1.208,6.707ZM117.846,41.621c-.76.74.052.314-1.143.778a6.512,6.512,0,0,1-1.157.168c-7.23,1.078-14.1,5.308-19.371,10.125A38.792,38.792,0,0,0,88.751,61.1C84.573,67.73,85,68.556,82.838,72.388l-.6.88c-.034.064-.077.169-.108.236s-.066.181-.1.254c-2.744,6.522-2.5,19.393-2.5,26.237V659.824c0,15.758-.84,14.666,3.194,28.59l2.186,5.994c.039.07.105.165.146.235s.1.17.143.242.093.183.136.256c.057.1.195.385.256.479.041.063.11.151.154.213l.349.419c.071.092.309.359.378.458.813,1.168.4,1.391,1.767,2.83,6.927,7.3,8.457,11.895,21.6,17.478.1.043.2.089.3.133l.784.4c.07.032.168.083.239.112a11.112,11.112,0,0,0,1.381.37c5.138,1.051,13.867.786,19.28.787q63.87.006,127.728-.084l111.034-.12c3.984-.012,12.681-.5,16.036.041,3.125.552,8.675-1.361,10.523-2.418.068-.125.152-.455.2-.374.006.01-.146-.311,1.439-1.193,5.087-2.829,12.523-10.142,15.916-15.356,6.716-10.32,4.582-7.421,7.169-15.741.278-.894.543-.962.713-1.75.214-1,.257-1.734.447-2.69,1.519-7.645.745-19.62.745-27.856,0-187.053-.354-374.37,0-561.382a50.491,50.491,0,0,0-1.287-10.154c-2.59-14.366-14.636-29.465-27.771-35.2-.29-.126-1.859-.665-1.936-.687-1.721-.48-1.207.427-2.009-.935-2.611,0-1.862-.1-2.535-.951-7.23-2.482-54.477-1.078-66.959-1.1-13.6-.018-191.909-.871-196.623-.216l-6.812.96Z" transform="translate(-74.336 -37.806)"/><path class="b" d="M560.215,777.411a41.049,41.049,0,0,1-28.685,34.4c-8.585,2.608-20.226,1.784-29.731,1.784h-220.9c-17.459,0-32.094-8.276-39.209-24.157-4.255-9.5-3.614-16.879-3.614-27.949V224.57c0-10.469-.1-20.985,0-31.447a41,41,0,0,1,25.419-37.978c8.955-3.719,17.991-3.043,28.273-3.043,10.55,0,21.018-2.4,23.281,8.025,1.912,8.809,5.289,14.866,14.4,17.461,4.851,1.382,53.1.673,62.1.673h63.282c9.192,0,18.408.8,24.191-7.145,6.518-8.949,2.529-17.591,12.441-18.917l31.222.028a41.179,41.179,0,0,1,35.6,27.512c3.071,9.2,2.223,19.518,2.223,29.689V761.881c0,4.865.3,10.849-.287,15.529Zm-323.2-.388a42.264,42.264,0,0,0,28.242,35.544c9.054,3.12,19.333,2.228,29.619,2.228h221.68c10.732,0,17.791-1.474,25.5-6.4a41.912,41.912,0,0,0,15.094-16.486c4.7-9.034,4.594-16.009,4.594-27.307V416.356c0-73.773-.346-148.335.006-222.068.084-17.463-8.971-32.283-24.121-39.4-9.665-4.542-16.426-4.015-28.062-4.015q-7.959,0-15.918,0c-4.709,0-8.506,1.5-10.5,5.833-1.776,3.858-1.574,14.611-12.374,18.888-6.018,2.383-22.623,1.351-30.313,1.351H345.729c-8.4,0-14.36,1.171-20.971-2.885l-4.085-3.587c-5.429-5.756-2.324-17.527-12.594-19.449-2.1-.393-28.249-.27-31.844-.1a41.935,41.935,0,0,0-30.929,16.741,38.1,38.1,0,0,0-5.7,10.307c-3.518,10.361-2.853,17.632-2.748,28.743.2,21.063-.111,42.2,0,63.282.463,84.449-.126,169.028.006,253.515l-.022,190.233c-.012,5.942-.3,58.617.16,63.282Z" transform="translate(-221.464 -141.028)"/><path class="c" d="M442.764,738.822l1.4-.1c-1.238.627-2.078,1.311-3.341,2.022-1.1.621-2.84,1.448-3.8,2.074-1.393.021-5.471,1.22-7.292,1.6-4.143.856-21.366.5-26.334.5l-213.915.005c-5.953.006-11.906-.043-17.858.044-8.171.119-11.6-2.274-14.937-2.7l-2.143-.528a6.458,6.458,0,0,1-1.652-.981c-2.1-1.767-.8-.531-2.151-1.273-1.326-.727-.238-.684-1.865-1.712-.1-.061-.4-.208-.5-.267l-3.106-1.983c-.068-.048-.141-.137-.208-.185l-.465-.308c-.148-.1-1.065-.451-1.185-1.11-.024-.132-.072-.181-.123-.412l-1.55.031c-.062-2.2-1.047-2.124-2.307-3.4-1.278-1.3-1.213-2.245-3.426-2.305l-.094-1.936c-2.739-1.358.25.676-2.623-2.769L130.762,719c-2.557-4.255-1.47-5.407-2.531-3.479.061,2.287,3.065,6.841,4.28,8.7,1.675,2.564,7.02,8.9,9.006,10.4,1.225.923,2.134,1.776,3.471,2.751a53.8,53.8,0,0,0,8.037,4.79c14.282,6.919,29.358,5.209,46.16,5.209H404.947c19.151,0,28.65.38,42.69-9.079a46.449,46.449,0,0,0,10.181-9.249c11.8-14.961,13.027-26.116,13.027-44.707V299.249l2.533-.371c-.629-3.18-.434-32.688-.469-38.484-.076-12.773-.539-26.219-.1-38.908l1.634.048,0-3-1.6.1c.146-1.28-.185-.568.369-1.527.666-1.154-.182-.032.8-.578l-3.17.187q0-45.518,0-91.035c0-15.519.314-26.479-6.795-38.535a51.356,51.356,0,0,0-10.175-12.727c-2.3-1.945-9.853-8.457-13.53-8.741l-6.484-1.126c.672.849-.077.951,2.534.951.8,1.361.288.455,2.008.935.077.021,1.646.56,1.936.687,13.135,5.737,25.181,20.836,27.771,35.2a50.475,50.475,0,0,1,1.287,10.154c-.354,187.013,0,374.33,0,561.382,0,8.237.774,20.211-.745,27.856-.19.956-.232,1.694-.447,2.69-.17.789-.434.856-.713,1.75-2.587,8.321-.453,5.422-7.169,15.742-3.393,5.213-10.829,12.526-15.916,15.356-1.585.882-1.433,1.2-1.439,1.193-.05-.081-.135.25-.2.374Z" transform="translate(-119.954 -60.383)"/><path class="d" d="M36.672,60.627c-2.256.243-7.72,4.08-9.318,5.272a49.391,49.391,0,0,0-13.8,15.314c-7.243,11.837-7.3,22.232-7.3,36.313l-.089,28.906h-2.3l1.259,1.377c-.051,4.384-.645,8.378-.785,13.2-.153,5.272.247,7.941-.675,13.425l2.327-.011c.469.845.478,23.855.164,26.34l-2.344.051a4.657,4.657,0,0,0,.529.734c1.033,1.269.794-.269.725,4.5a28.943,28.943,0,0,1-.383,5.7c-.563,2.9-.289,31.882-.6,38.027l-1.446-.388.034,1.309c.092.088.238.18.3.232.631.511.789.283.395,1.35l2.883.127.1,12.089c-.613.716-.392.743-2.192.888.046.087.121.114.135.262.6,6.163.5,3.958.413,12.229l-.221,25.623c-.044,4.072-.42,8.994-.288,12.827l2.04.119c.332,16.523.019,33.387.019,49.948V664.932c0,6.713-1.144,39.341,4.484,45.547,1.061-1.928-.025-.776,2.531,3.479l2.516,4.113c2.873,3.445-.116,1.41,2.623,2.769l.094,1.936c2.213.061,2.149,1.008,3.426,2.305,1.26,1.28,2.245,1.2,2.307,3.4l1.55-.031c.052.232.1.281.123.412.12.66,1.037,1.013,1.185,1.11l.465.308c.068.048.14.136.208.185l3.106,1.983c.1.059.407.206.5.267,1.627,1.028.54.985,1.865,1.712,1.353.742.046-.493,2.151,1.273a6.441,6.441,0,0,0,1.652.981c.665-1.125-1.464-1.775,3.912-.544,9.571,2.192,54.38,1.444,64.414,1.433,23.388-.026,46.232-.467,69.494-.544l122.293-.07c2.11-.006,15.743.639,17.589-.769-3.355-.545-12.052-.054-16.036-.041l-111.034.12q-63.864.082-127.728.084c-5.412,0-14.142.264-19.28-.787a11.263,11.263,0,0,1-1.381-.37c-.07-.029-.168-.08-.239-.112l-.784-.4c-.1-.044-.2-.09-.3-.133-13.14-5.583-14.67-10.173-21.6-17.478-1.364-1.439-.955-1.661-1.767-2.83-.068-.1-.307-.366-.378-.458l-.349-.419c-.044-.061-.112-.15-.154-.213-.061-.093-.2-.381-.256-.479-.043-.073-.094-.183-.136-.256s-.1-.171-.143-.242-.106-.165-.146-.235l-2.186-5.994c-4.034-13.923-3.194-12.831-3.194-28.59V117.527c0-6.844-.245-19.716,2.5-26.237.031-.073.064-.185.1-.254s.074-.172.108-.236l.6-.88c2.163-3.832,1.735-4.658,5.913-11.289a38.758,38.758,0,0,1,7.424-8.408c5.27-4.816,12.141-9.047,19.371-10.125a6.512,6.512,0,0,0,1.157-.168c1.2-.464.383-.039,1.143-.778-3.678.052-6.469,1.3-9.309,1.475Z" transform="translate(-2.469 -55.336)"/><path class="e" d="M5182.5,1025.525c.766-.485.493.235,1.434-1.713,5.266-10.9,4.889-19.545,4.909-31.933l.449-118.41c.006-52.668-.15-105.343-.117-158.01l-.448-236.821c.01-11.4.489-48.741-.6-58.664-.337-3.07-2.714-13.6-4.117-15.251-.184-2.2-.273-.6.824-1.206-.373-1.063-.451-.924-1.479-2.043-1.647-1.792-3.876-2.865-4.436-3.406l-.233-.617c.238.586,1.172,1.881,1.655,2.823,4.772,9.3,6.136,17.016,6.071,27.894-.55,92.495,1.085,576.832-.188,579.408l.068-162.729c.833.82.562.024.9,1.419l.335,137.46c-.031,11.262,1.239,22.647-2.04,33.289C5184.462,1020.313,5182.4,1024.223,5182.5,1025.525Z" transform="translate(-4844.444 -371.799)"/><path class="f" d="M5237.82,1113.41l.363.434c2.006-2.485,2.066-1.505,4.1-5.689,3.862-7.96,4.17-16.877,4.169-25.674l.02-557.5c0-6.471.13-12.479-1.007-18.747-1.876-10.341-4.757-12.269-5.31-14.833-1.1.6-1.009-.992-.824,1.206,1.4,1.646,3.779,12.181,4.117,15.251,1.091,9.923.613,47.26.6,58.664l.448,236.821c-.032,52.666.124,105.341.117,158.01l-.449,118.41c-.021,12.388.356,21.034-4.909,31.933-.941,1.948-.668,1.228-1.434,1.713Z" transform="translate(-4899.768 -459.683)"/><path class="f" d="M166.423,1085.623c-.81-.442-.773.465-2.145-3.006a48.577,48.577,0,0,1-3.192-11.92c-.986-8.812-.619-47.7-.764-58.6-.354-26.461-.155-53.122-.191-79.6-.2-145.5.6-290.92.607-436.371,0-11.209-.146-16.529,3.132-26.679.352-1.091,2.721-6.169,2.7-6.4-7.226,5.507-8.174,22.869-8.175,31.527l.014,560.994c0,12.169.96,25.164,8.382,31.7l-.363-1.637Z" transform="translate(-148.167 -433.156)"/><path class="g" d="M191.353,431.628c.026.232-2.343,5.311-2.7,6.4-3.277,10.15-3.132,15.47-3.132,26.679,0,145.452-.8,290.873-.607,436.371.036,26.482-.163,53.142.191,79.6.146,10.9-.222,49.789.764,58.6a48.567,48.567,0,0,0,3.192,11.92c1.373,3.471,1.335,2.565,2.145,3.006-1.5-5.531-3.387-7-4.42-16.122-.792-6.991-.545-50.14-.556-58.974l.7-237.986c0-92.555.571-185.3.441-277.973-.015-10.681-.225-17.029,3.279-26.57.609-1.659,2.361-5.612,2.487-7.127l-1.788,2.169Z" transform="translate(-172.954 -401.743)"/><path class="h" d="M529.93,5.3c2.839-.172,5.63-1.422,9.309-1.475l6.812-.96c4.714-.656,183.025.2,196.623.216,12.482.017,59.729-1.386,66.959,1.1L816.117,5.3l-6.641-2.881c-9.916-2.97-15.057-2.36-25.65-2.36L561.758.065c-11.164,0-18.546-.434-28.989,3.6-.378.146-1.379.539-1.641.674l-.983.709c-.041-.076-.144.167-.214.25Z" transform="translate(-495.728 -0.007)"/><path class="i" d="M813.562,10512.727c-1.845,1.408-15.479.762-17.589.769l-122.293.069c-23.261.078-46.1.519-69.494.545-10.034.012-54.844.759-64.414-1.434-5.377-1.231-3.247-.58-3.912.544l2.143.528c.587-.719-.982-.7,1.561-.427.3.033,1.345.372,1.814.464,11.777,2.3,53.253,1.451,65.526,1.479l142.481-.192c11.888,0,23.645.26,35.329.365,7.278.065,22.474.124,29.7-1.284,5.6-1.09,3.129-.712,3.926.153.96-.627,2.7-1.453,3.8-2.075,1.262-.71,2.1-1.394,3.341-2.021l-1.4.1c-1.848,1.057-7.4,2.97-10.523,2.418Z" transform="translate(-501.275 -9831.874)"/><path class="j" d="M849.416,10556.887c-.8-.865,1.676-1.244-3.926-.152-7.225,1.408-22.422,1.348-29.7,1.282-11.685-.1-23.441-.364-35.329-.364l-142.481.191c-12.272-.026-53.749.818-65.526-1.478-.469-.092-1.51-.431-1.814-.465-2.544-.274-.975-.292-1.561.428,3.334.425,6.766,2.819,14.937,2.7,5.952-.086,11.906-.039,17.858-.045l213.915,0c4.967,0,22.19.359,26.334-.5,1.821-.375,5.9-1.574,7.292-1.6Z" transform="translate(-532.351 -9874.452)"/><path class="k" d="M2436.332,349.176c1.167.653.937.636,2.668.671,1.159.023,2.351-.006,3.516-.01,4.571-.015,33.449.494,34.457-.454.561-.528,1.333-3.021-1.734-3.081-.751-.015-2.288-.058-4.219.03-.616.028-.886.029-1.934,0l-18.061.006c-.117,0-.545.006-.665.008-.087,0-.2.018-.283.018l-5.557-.076c-7.026-.135-8.569-.763-8.187,2.888Z" transform="translate(-2279.039 -323.821)"/><path class="l" d="M5436.69,2573.914c4.244.01,3.722.445,3.6-7.02-.368-23.091.6-48.078,0-70.7l-1.633-.048c-.443,12.689.019,26.135.1,38.908.034,5.8-.16,35.3.469,38.484l-2.533.371Z" transform="translate(-5085.802 -2335.047)"/><path class="m" d="M.166,2302.6l1.446.388c.312-6.145.038-35.125.6-38.027a28.9,28.9,0,0,0,.383-5.7c.069-4.764.308-3.226-.725-4.5a4.579,4.579,0,0,1-.529-.734c-1.367.51-1.305.658-1.3,2.5,0,.981.126,2.088.141,3.118.21,13.66-.493,30.359-.017,42.949Z" transform="translate(0.004 -2108.554)"/><path class="n" d="M2461.468,336.452c-1.007.949-29.885.439-34.457.454-1.164,0-2.356.033-3.515.01-1.731-.035-1.5-.018-2.668-.671-.382-3.65,1.162-3.022,8.188-2.888l5.557.076c.085,0,.2-.017.283-.018.119,0,.548-.008.665-.008l18.061-.006c1.047.027,1.317.026,1.934,0,1.93-.088,3.467-.045,4.219-.03,3.066.06,2.294,2.553,1.734,3.081Zm-40.292,1.151c3.771.575,37.013.618,40.38-.034,1.123-1.21,2.256-2.766.632-4.331-1.465-1.411-18.251-.736-20.813-.736-2.5,0-19.093-.58-20.619.564C2418.826,334.513,2419.911,336.267,2421.177,337.6Z" transform="translate(-2263.536 -310.891)"/><path class="o" d="M6.327,3292.429c-.131-3.833.245-8.755.288-12.827l.221-25.623c.09-8.27.182-6.065-.413-12.228-.014-.148-.089-.175-.135-.262,1.8-.145,1.58-.172,2.192-.888l-3.24.357c-.529,3.226-.059,38.48-.193,46.021-.072,4.051-.651,4.915,1.278,5.451Z" transform="translate(-4.594 -3031.45)"/><path class="p" d="M3273.668,292.778c-2.249-.975-1.986-1.288-1.295-3.876l3.077-.092C3274.96,290.825,3275.356,291.257,3273.668,292.778Zm4.658,1.687c-1.925.449-1.645.736-3.869.414a5.182,5.182,0,0,1,1.928-4.191,5.254,5.254,0,0,1,2.429.463c-.241-1.828-.392-2.369-1.412-3.515-1.534-1.722-.2-.658-1.009-2.407l-.756-.359-2.491.01c-1.17,3.31-5.165,3.983-2.867,7.99.831,1.45,1.719,1.808,3.406,2.308,2.452.727,2.874,1.511,4.641-.714Z" transform="translate(-3058.557 -266.485)"/><path class="q" d="M4.125,1439.432c.922-5.484.522-8.153.675-13.425.14-4.822.734-8.816.785-13.2l-1.259-1.377-1.2.6.1,26.873Z" transform="translate(-2.928 -1320.336)"/><path class="r" d="M3695.454,294.472a8.865,8.865,0,0,1,1.614-4.072,5.2,5.2,0,0,1,2.294.511c.648,3.721-.208,3.331-3.908,3.562Zm-1.018-1.916c-1.315-1.064-2.209-1.969-.389-4.247l2.9-.077a22.244,22.244,0,0,1-.838,2.216,2.935,2.935,0,0,1-1.671,2.109Zm1.018,1.916c.419.421-1.188.27.972.625a8.468,8.468,0,0,0,1.737-.081c2.647-1.894,2.522-3.827,1.208-6.707a4.09,4.09,0,0,0-1.069-1.383c-1.412-1.537.885-.629-1.358-2.033l-2.113-.233c-.953,2.173-3.509,2.544-3.667,5.374a3.917,3.917,0,0,0,4.289,4.436Z" transform="translate(-3452.925 -266.288)"/><path class="s" d="M3252.911,278.193c.811,1.748-.524.685,1.01,2.407,1.02,1.146,1.171,1.687,1.412,3.515-.1,1.811.308,1.806-.489,3.314-1.767,2.225-2.188,1.441-4.641.714-1.687-.5-2.575-.858-3.407-2.308-2.3-4.007,1.7-4.68,2.868-7.989l2.491-.01c-3-1.747-6.6,1.611-7.325,3.822-2.407,7.332,8.131,11.5,11.38,4.531a5.686,5.686,0,0,0-3.3-7.995Z" transform="translate(-3035.075 -259.449)"/><path class="p" d="M2095.456,287.71c-.618.31-.581-.012-.919.388.218,2.9-.016.5,1.064,2.374-1.15,1.242-.557,1.617-1.343,2.865-.909,1.442-.725-.444-1.039,1.695,0,.015.074,1.213.085,1.248.38,1.166.138.467.761,1.133-.3-2.282-.1-3.62,2.327-4.013a4.837,4.837,0,0,1,.961-2.2l.95-.874c5.035-.3,5.094,3.9,2.718,5.32,0-1.16.173-.082-.862-.562,1.021,3.592.116,4.591-3.794,4.238.808.84-1.12.281,1.514.8.188.037,1.515,0,1.761,0,1.746-2.693,4.27-3,4.674-5.8.52-3.6-1.4-5.448-4.48-5.964l-.346-.8c-.072.086-.153.207-.2.27l-.738.975c-.5.474-1.817,1.062-2.529.571-1.059-.729-.931.493-.563-1.666Z" transform="translate(-1958.121 -269.001)"/><path class="p" d="M1721.357,299.448a4.992,4.992,0,0,0-2.921,5.085,2.682,2.682,0,0,0,.984,2.184l.156-2.552,2.086-.493a15.8,15.8,0,0,0,1.306.952c.176-.777.418.153.156-1.212-.385-2,.356.078-.415-.731.819-.627.964-.319,2,.041l.1,2.508-1.658.17-.05,2.48,2.063.246c.051-.061,4.8-3.457,1.284-7.134-1.117-1.168-.882-.2-1.694-1.979l-.426-.013c-.055,2-.393,1.916-2.631,1.685l-.341-1.237Z" transform="translate(-1607.507 -279.703)"/><path class="t" d="M2152.948,266.3l.346.8c3.081.516,5,2.358,4.481,5.964-.4,2.8-2.928,3.109-4.674,5.8,1.825-.016,1.772-.04,2.939-.684.151-.083,1.066-.568,1.249-.7a7.025,7.025,0,0,0,1.818-9.006c-1.691-2.6-6.524-5.052-8.737-2.7,1.225-.128,1.957-.523,2.578.52Z" transform="translate(-2011.583 -247.742)"/><path class="u" d="M2077.447,270.724c-.385-.92.363-.3-.521-.8-.624-.666-.382.034-.761-1.133-.011-.034-.088-1.232-.085-1.248.314-2.139.131-.253,1.039-1.695.787-1.248.193-1.623,1.343-2.865-1.08-1.879-.846.527-1.064-2.374.338-.4.3-.077.919-.388l1.452-.669c2.212-2.349,7.046.1,8.737,2.7a7.026,7.026,0,0,1-1.818,9.006c-.183.128-1.1.613-1.249.7-1.167.644-1.114.668-2.939.684-.247,0-1.572.036-1.761,0-2.633-.522-.706.036-1.514-.8l-.521-.179c.657,1.683,4.044,1.641,5.8,1.16a7.391,7.391,0,0,0,2.4-12.884c-8.571-6.761-16.126,7.964-9.46,10.793Z" transform="translate(-1940.982 -241.512)"/><path class="v" d="M3677.958,291.386a8.465,8.465,0,0,1-1.738.081c-2.16-.355-.553-.2-.972-.625a3.917,3.917,0,0,1-4.29-4.437c.158-2.83,2.714-3.2,3.667-5.374l2.113.233c-5.962-2.76-10.123,7.038-4.584,10.359,1.228.736,3.811,1.1,5.039.465.933-.485.216-.108.765-.7Z" transform="translate(-3432.721 -262.658)"/><path class="w" d="M2104.752,379.975c.883.5.136-.119.521.8l1.258.931.52.179c3.911.354,4.816-.645,3.794-4.238-.945-.176-.595-.146-1.111-.818l-.743-.128c-.073,2.515,1.246.822,1.131,3.718l-2.624.526c-1.438-.388-1.639-.351-1.914-1.675.412-1.513.211-1.812,1.63-2.536.646-.329.08-.244,1.024-.256-.285-.509.19-.877-1.16-.518-2.426.392-2.63,1.731-2.327,4.012Z" transform="translate(-1968.808 -351.564)"/><path class="u" d="M2157.27,331.122c1.257.06,1,.061,1.7.775l-.006,2.291c.516.673.166.642,1.111.818,1.036.48.858-.6.862.562,2.376-1.416,2.317-5.62-2.718-5.32l-.95.875Z" transform="translate(-2018.038 -308.92)"/><path class="x" d="M3348.918,378.768c.8-1.508.386-1.5.489-3.314a5.25,5.25,0,0,0-2.429-.463,5.178,5.178,0,0,0-1.928,4.191c2.224.323,1.944.035,3.869-.414Z" transform="translate(-3129.149 -350.788)"/><path class="t" d="M1756.461,308.067l-2.384.107c.011.019-.226.96,2.108,1.1a6.106,6.106,0,0,0,2.571-.33,5.142,5.142,0,0,0-.643-9.739c.813,1.783.578.811,1.694,1.979,3.515,3.677-1.233,7.072-1.284,7.134l-2.063-.246Z" transform="translate(-1640.865 -279.89)"/><path class="y" d="M1733.99,374.425l1.3,1.27,2.384-.106.05-2.48-.184-.777a16.126,16.126,0,0,1-1.306-.952l-2.086.493Z" transform="translate(-1622.077 -347.411)"/><path class="z" d="M2119.24,388.843c1.494-.133,1.617.309,1.914,1.675l2.624-.526c.114-2.9-1.205-1.2-1.132-3.717l-.752-.222c-.944.012-.378-.074-1.024.256-1.419.724-1.218,1.022-1.63,2.536Z" transform="translate(-1982.462 -361.135)"/><path class="aa" d="M3757.76,377.652c3.7-.231,4.556.159,3.908-3.562a5.207,5.207,0,0,0-2.295-.511,8.858,8.858,0,0,0-1.614,4.072Z" transform="translate(-3515.231 -349.469)"/><path class="ab" d="M3721.45,344.314a2.936,2.936,0,0,0,1.671-2.109,22.088,22.088,0,0,0,.837-2.216l-2.9.077c-1.821,2.278-.926,3.184.389,4.247Z" transform="translate(-3479.94 -318.047)"/><path class="u" d="M3307.068,349.878c1.688-1.521,1.292-1.953,1.782-3.968l-3.078.092C3305.082,348.59,3304.819,348.9,3307.068,349.878Z" transform="translate(-3091.957 -323.585)"/><path class="ac" d="M2124.019,277.572c-.368,2.159-.5.936.563,1.666.713.491,2.032-.1,2.529-.571l.738-.975c.047-.063.128-.184.2-.27-.622-1.042-1.354-.648-2.578-.52Z" transform="translate(-1986.684 -258.863)"/><path class="x" d="M2142.37,346.2c1.35-.359.875.009,1.16.518l.753.222.743.128.006-2.291c-.7-.714-.443-.714-1.7-.775a4.847,4.847,0,0,0-.961,2.2Z" transform="translate(-2004.099 -321.798)"/><path class="r" d="M1785.209,352.75l.185.777,1.658-.17-.1-2.508c-1.039-.36-1.185-.669-2-.041.771.809.03-1.273.415.731.263,1.365.019.435-.156,1.212Z" transform="translate(-1669.748 -327.829)"/><path class="ac" d="M1763.991,299.457l.341,1.237c2.238.232,2.577.316,2.631-1.685l-2.973.447Z" transform="translate(-1650.141 -279.712)"/><path class="m" d="M5469.262,2421.307l-.431-2.007c-.983.546-.134-.576-.8.578-.554.959-.223.247-.369,1.527l1.6-.1Z" transform="translate(-5114.773 -2263.157)"/><path class="ad" d="M2121.144,430.678c-.3-1.366-.421-1.808-1.914-1.675C2119.506,430.327,2119.706,430.29,2121.144,430.678Z" transform="translate(-1982.453 -401.294)"/><path class="a" d="M89.881,673.8c-.464-4.665-.172-57.339-.16-63.282l.022-190.233c-.132-84.486.458-169.066-.006-253.515-.116-21.08.195-42.219,0-63.282-.105-11.111-.77-18.382,2.747-28.743a38.124,38.124,0,0,1,5.7-10.307A41.936,41.936,0,0,1,129.1,47.7c3.6-.174,29.744-.3,31.844.1,10.27,1.922,7.165,13.694,12.594,19.449l4.085,3.587c6.611,4.056,12.569,2.885,20.971,2.885h94.728c7.69,0,24.3,1.033,30.313-1.351,10.8-4.277,10.6-15.03,12.374-18.888,1.994-4.334,5.791-5.833,10.5-5.833q7.959,0,15.918,0c11.636,0,18.4-.526,28.062,4.015,15.15,7.119,24.2,21.939,24.121,39.4-.352,73.733-.006,148.3-.006,222.068V661.377c0,11.3.106,18.272-4.594,27.307a41.919,41.919,0,0,1-15.094,16.486c-7.709,4.93-14.768,6.4-25.5,6.4H147.742c-10.286,0-20.565.893-29.619-2.228A42.264,42.264,0,0,1,89.881,673.8Zm2.71,16.473.363,1.637c-7.422-6.534-8.383-19.529-8.382-31.7L84.558,99.219c0-8.658.949-26.021,8.175-31.528l1.788-2.169c-.126,1.515-1.878,5.467-2.487,7.127-3.5,9.541-3.294,15.889-3.279,26.57.129,92.668-.442,185.418-.441,277.973l-.7,237.986c.011,8.834-.236,51.983.556,58.974,1.033,9.122,2.917,10.59,4.42,16.122ZM291.415,56.191l.756.359a5.686,5.686,0,0,1,3.3,7.995c-3.249,6.972-13.787,2.8-11.38-4.531C284.816,57.8,288.413,54.445,291.415,56.191ZM212.057,67.95l-1.257-.931c-6.666-2.828.889-17.554,9.46-10.793a7.391,7.391,0,0,1-2.4,12.884C216.1,69.591,212.715,69.633,212.057,67.95ZM414.72,69.52c.552,2.565,3.434,4.493,5.31,14.833,1.137,6.268,1.007,12.276,1.007,18.747l-.02,557.5c0,8.8-.307,17.714-4.169,25.674-2.03,4.184-2.09,3.2-4.1,5.689l-.363-.434c-.1-1.3,1.964-5.212,2.98-8.51,3.279-10.642,2.009-22.028,2.039-33.289l-.335-137.46c-.334-1.4-.063-.6-.9-1.419l-.068,162.729c1.274-2.577-.362-486.913.188-579.408.065-10.878-1.3-18.592-6.071-27.895-.483-.941-1.417-2.237-1.655-2.823l.233.617c.56.54,2.789,1.614,4.436,3.406,1.028,1.118,1.107.98,1.48,2.043ZM188.186,57.55l2.973-.447.426.013a5.142,5.142,0,0,1,.643,9.739,6.108,6.108,0,0,1-2.571.33c-2.334-.135-2.1-1.076-2.108-1.1l-1.3-1.27a2.683,2.683,0,0,1-.984-2.184,4.992,4.992,0,0,1,2.921-5.085Zm43.791,6.968c-1.266-1.336-2.351-3.09-.42-4.538,1.526-1.144,18.123-.564,20.619-.564,2.562,0,19.349-.675,20.813.736,1.624,1.566.49,3.121-.633,4.331C268.99,65.136,235.748,65.093,231.976,64.518Zm87.6,2.015c-.549.592.167.215-.765.7-1.228.639-3.811.271-5.039-.465-5.538-3.321-1.377-13.119,4.584-10.359,2.243,1.4-.054.5,1.359,2.033a4.092,4.092,0,0,1,1.068,1.383c1.315,2.88,1.439,4.813-1.208,6.707ZM117.846,41.621c-.76.74.052.314-1.143.778a6.512,6.512,0,0,1-1.157.168c-7.23,1.078-14.1,5.308-19.371,10.125A38.792,38.792,0,0,0,88.751,61.1C84.573,67.73,85,68.556,82.838,72.388l-.6.88c-.034.064-.077.169-.108.236s-.066.181-.1.254c-2.744,6.522-2.5,19.393-2.5,26.237V659.824c0,15.758-.84,14.666,3.194,28.59l2.186,5.994c.039.07.105.165.146.235s.1.17.143.242.093.183.136.256c.057.1.195.385.256.479.041.063.11.151.154.213l.349.419c.071.092.309.359.378.458.813,1.168.4,1.391,1.767,2.83,6.927,7.3,8.457,11.895,21.6,17.478.1.043.2.089.3.133l.784.4c.07.032.168.083.239.112a11.112,11.112,0,0,0,1.381.37c5.138,1.051,13.867.786,19.28.787q63.87.006,127.728-.084l111.034-.12c3.984-.012,12.681-.5,16.036.041,3.125.552,8.675-1.361,10.523-2.418.068-.125.152-.455.2-.374.006.01-.146-.311,1.439-1.193,5.087-2.829,12.523-10.142,15.916-15.356,6.716-10.32,4.582-7.421,7.169-15.741.278-.894.543-.962.713-1.75.214-1,.257-1.734.447-2.69,1.519-7.645.745-19.62.745-27.856,0-187.053-.354-374.37,0-561.382a50.491,50.491,0,0,0-1.287-10.154c-2.59-14.366-14.636-29.465-27.771-35.2-.29-.126-1.859-.665-1.936-.687-1.721-.48-1.207.427-2.009-.935-2.611,0-1.862-.1-2.535-.951-7.23-2.482-54.477-1.078-66.959-1.1-13.6-.018-191.909-.871-196.623-.216l-6.812.96Z" transform="translate(-74.336 -37.806)"/><path class="b" d="M560.215,777.411a41.049,41.049,0,0,1-28.685,34.4c-8.585,2.608-20.226,1.784-29.731,1.784h-220.9c-17.459,0-32.094-8.276-39.209-24.157-4.255-9.5-3.614-16.879-3.614-27.949V224.57c0-10.469-.1-20.985,0-31.447a41,41,0,0,1,25.419-37.978c8.955-3.719,17.991-3.043,28.273-3.043,10.55,0,21.018-2.4,23.281,8.025,1.912,8.809,5.289,14.866,14.4,17.461,4.851,1.382,53.1.673,62.1.673h63.282c9.192,0,18.408.8,24.191-7.145,6.518-8.949,2.529-17.591,12.441-18.917l31.222.028a41.179,41.179,0,0,1,35.6,27.512c3.071,9.2,2.223,19.518,2.223,29.689V761.881c0,4.865.3,10.849-.287,15.529Zm-323.2-.388a42.264,42.264,0,0,0,28.242,35.544c9.054,3.12,19.333,2.228,29.619,2.228h221.68c10.732,0,17.791-1.474,25.5-6.4a41.912,41.912,0,0,0,15.094-16.486c4.7-9.034,4.594-16.009,4.594-27.307V416.356c0-73.773-.346-148.335.006-222.068.084-17.463-8.971-32.283-24.121-39.4-9.665-4.542-16.426-4.015-28.062-4.015q-7.959,0-15.918,0c-4.709,0-8.506,1.5-10.5,5.833-1.776,3.858-1.574,14.611-12.374,18.888-6.018,2.383-22.623,1.351-30.313,1.351H345.729c-8.4,0-14.36,1.171-20.971-2.885l-4.085-3.587c-5.429-5.756-2.324-17.527-12.594-19.449-2.1-.393-28.249-.27-31.844-.1a41.935,41.935,0,0,0-30.929,16.741,38.1,38.1,0,0,0-5.7,10.307c-3.518,10.361-2.853,17.632-2.748,28.743.2,21.063-.111,42.2,0,63.282.463,84.449-.126,169.028.006,253.515l-.022,190.233c-.012,5.942-.3,58.617.16,63.282Z" transform="translate(-221.464 -141.028)"/><path class="c" d="M442.764,738.822l1.4-.1c-1.238.627-2.078,1.311-3.341,2.022-1.1.621-2.84,1.448-3.8,2.074-1.393.021-5.471,1.22-7.292,1.6-4.143.856-21.366.5-26.334.5l-213.915.005c-5.953.006-11.906-.043-17.858.044-8.171.119-11.6-2.274-14.937-2.7l-2.143-.528a6.458,6.458,0,0,1-1.652-.981c-2.1-1.767-.8-.531-2.151-1.273-1.326-.727-.238-.684-1.865-1.712-.1-.061-.4-.208-.5-.267l-3.106-1.983c-.068-.048-.141-.137-.208-.185l-.465-.308c-.148-.1-1.065-.451-1.185-1.11-.024-.132-.072-.181-.123-.412l-1.55.031c-.062-2.2-1.047-2.124-2.307-3.4-1.278-1.3-1.213-2.245-3.426-2.305l-.094-1.936c-2.739-1.358.25.676-2.623-2.769L130.762,719c-2.557-4.255-1.47-5.407-2.531-3.479.061,2.287,3.065,6.841,4.28,8.7,1.675,2.564,7.02,8.9,9.006,10.4,1.225.923,2.134,1.776,3.471,2.751a53.8,53.8,0,0,0,8.037,4.79c14.282,6.919,29.358,5.209,46.16,5.209H404.947c19.151,0,28.65.38,42.69-9.079a46.449,46.449,0,0,0,10.181-9.249c11.8-14.961,13.027-26.116,13.027-44.707V299.249l2.533-.371c-.629-3.18-.434-32.688-.469-38.484-.076-12.773-.539-26.219-.1-38.908l1.634.048,0-3-1.6.1c.146-1.28-.185-.568.369-1.527.666-1.154-.182-.032.8-.578l-3.17.187q0-45.518,0-91.035c0-15.519.314-26.479-6.795-38.535a51.356,51.356,0,0,0-10.175-12.727c-2.3-1.945-9.853-8.457-13.53-8.741l-6.484-1.126c.672.849-.077.951,2.534.951.8,1.361.288.455,2.008.935.077.021,1.646.56,1.936.687,13.135,5.737,25.181,20.836,27.771,35.2a50.475,50.475,0,0,1,1.287,10.154c-.354,187.013,0,374.33,0,561.382,0,8.237.774,20.211-.745,27.856-.19.956-.232,1.694-.447,2.69-.17.789-.434.856-.713,1.75-2.587,8.321-.453,5.422-7.169,15.742-3.393,5.213-10.829,12.526-15.916,15.356-1.585.882-1.433,1.2-1.439,1.193-.05-.081-.135.25-.2.374Z" transform="translate(-119.954 -60.383)"/><path class="d" d="M36.672,60.627c-2.256.243-7.72,4.08-9.318,5.272a49.391,49.391,0,0,0-13.8,15.314c-7.243,11.837-7.3,22.232-7.3,36.313l-.089,28.906h-2.3l1.259,1.377c-.051,4.384-.645,8.378-.785,13.2-.153,5.272.247,7.941-.675,13.425l2.327-.011c.469.845.478,23.855.164,26.34l-2.344.051a4.657,4.657,0,0,0,.529.734c1.033,1.269.794-.269.725,4.5a28.943,28.943,0,0,1-.383,5.7c-.563,2.9-.289,31.882-.6,38.027l-1.446-.388.034,1.309c.092.088.238.18.3.232.631.511.789.283.395,1.35l2.883.127.1,12.089c-.613.716-.392.743-2.192.888.046.087.121.114.135.262.6,6.163.5,3.958.413,12.229l-.221,25.623c-.044,4.072-.42,8.994-.288,12.827l2.04.119c.332,16.523.019,33.387.019,49.948V664.932c0,6.713-1.144,39.341,4.484,45.547,1.061-1.928-.025-.776,2.531,3.479l2.516,4.113c2.873,3.445-.116,1.41,2.623,2.769l.094,1.936c2.213.061,2.149,1.008,3.426,2.305,1.26,1.28,2.245,1.2,2.307,3.4l1.55-.031c.052.232.1.281.123.412.12.66,1.037,1.013,1.185,1.11l.465.308c.068.048.14.136.208.185l3.106,1.983c.1.059.407.206.5.267,1.627,1.028.54.985,1.865,1.712,1.353.742.046-.493,2.151,1.273a6.441,6.441,0,0,0,1.652.981c.665-1.125-1.464-1.775,3.912-.544,9.571,2.192,54.38,1.444,64.414,1.433,23.388-.026,46.232-.467,69.494-.544l122.293-.07c2.11-.006,15.743.639,17.589-.769-3.355-.545-12.052-.054-16.036-.041l-111.034.12q-63.864.082-127.728.084c-5.412,0-14.142.264-19.28-.787a11.263,11.263,0,0,1-1.381-.37c-.07-.029-.168-.08-.239-.112l-.784-.4c-.1-.044-.2-.09-.3-.133-13.14-5.583-14.67-10.173-21.6-17.478-1.364-1.439-.955-1.661-1.767-2.83-.068-.1-.307-.366-.378-.458l-.349-.419c-.044-.061-.112-.15-.154-.213-.061-.093-.2-.381-.256-.479-.043-.073-.094-.183-.136-.256s-.1-.171-.143-.242-.106-.165-.146-.235l-2.186-5.994c-4.034-13.923-3.194-12.831-3.194-28.59V117.527c0-6.844-.245-19.716,2.5-26.237.031-.073.064-.185.1-.254s.074-.172.108-.236l.6-.88c2.163-3.832,1.735-4.658,5.913-11.289a38.758,38.758,0,0,1,7.424-8.408c5.27-4.816,12.141-9.047,19.371-10.125a6.512,6.512,0,0,0,1.157-.168c1.2-.464.383-.039,1.143-.778-3.678.052-6.469,1.3-9.309,1.475Z" transform="translate(-2.469 -55.336)"/><path class="e" d="M5182.5,1025.525c.766-.485.493.235,1.434-1.713,5.266-10.9,4.889-19.545,4.909-31.933l.449-118.41c.006-52.668-.15-105.343-.117-158.01l-.448-236.821c.01-11.4.489-48.741-.6-58.664-.337-3.07-2.714-13.6-4.117-15.251-.184-2.2-.273-.6.824-1.206-.373-1.063-.451-.924-1.479-2.043-1.647-1.792-3.876-2.865-4.436-3.406l-.233-.617c.238.586,1.172,1.881,1.655,2.823,4.772,9.3,6.136,17.016,6.071,27.894-.55,92.495,1.085,576.832-.188,579.408l.068-162.729c.833.82.562.024.9,1.419l.335,137.46c-.031,11.262,1.239,22.647-2.04,33.289C5184.462,1020.313,5182.4,1024.223,5182.5,1025.525Z" transform="translate(-4844.444 -371.799)"/><path class="f" d="M5237.82,1113.41l.363.434c2.006-2.485,2.066-1.505,4.1-5.689,3.862-7.96,4.17-16.877,4.169-25.674l.02-557.5c0-6.471.13-12.479-1.007-18.747-1.876-10.341-4.757-12.269-5.31-14.833-1.1.6-1.009-.992-.824,1.206,1.4,1.646,3.779,12.181,4.117,15.251,1.091,9.923.613,47.26.6,58.664l.448,236.821c-.032,52.666.124,105.341.117,158.01l-.449,118.41c-.021,12.388.356,21.034-4.909,31.933-.941,1.948-.668,1.228-1.434,1.713Z" transform="translate(-4899.768 -459.683)"/><path class="f" d="M166.423,1085.623c-.81-.442-.773.465-2.145-3.006a48.577,48.577,0,0,1-3.192-11.92c-.986-8.812-.619-47.7-.764-58.6-.354-26.461-.155-53.122-.191-79.6-.2-145.5.6-290.92.607-436.371,0-11.209-.146-16.529,3.132-26.679.352-1.091,2.721-6.169,2.7-6.4-7.226,5.507-8.174,22.869-8.175,31.527l.014,560.994c0,12.169.96,25.164,8.382,31.7l-.363-1.637Z" transform="translate(-148.167 -433.156)"/><path class="g" d="M191.353,431.628c.026.232-2.343,5.311-2.7,6.4-3.277,10.15-3.132,15.47-3.132,26.679,0,145.452-.8,290.873-.607,436.371.036,26.482-.163,53.142.191,79.6.146,10.9-.222,49.789.764,58.6a48.567,48.567,0,0,0,3.192,11.92c1.373,3.471,1.335,2.565,2.145,3.006-1.5-5.531-3.387-7-4.42-16.122-.792-6.991-.545-50.14-.556-58.974l.7-237.986c0-92.555.571-185.3.441-277.973-.015-10.681-.225-17.029,3.279-26.57.609-1.659,2.361-5.612,2.487-7.127l-1.788,2.169Z" transform="translate(-172.954 -401.743)"/><path class="h" d="M529.93,5.3c2.839-.172,5.63-1.422,9.309-1.475l6.812-.96c4.714-.656,183.025.2,196.623.216,12.482.017,59.729-1.386,66.959,1.1L816.117,5.3l-6.641-2.881c-9.916-2.97-15.057-2.36-25.65-2.36L561.758.065c-11.164,0-18.546-.434-28.989,3.6-.378.146-1.379.539-1.641.674l-.983.709c-.041-.076-.144.167-.214.25Z" transform="translate(-495.728 -0.007)"/><path class="i" d="M813.562,10512.727c-1.845,1.408-15.479.762-17.589.769l-122.293.069c-23.261.078-46.1.519-69.494.545-10.034.012-54.844.759-64.414-1.434-5.377-1.231-3.247-.58-3.912.544l2.143.528c.587-.719-.982-.7,1.561-.427.3.033,1.345.372,1.814.464,11.777,2.3,53.253,1.451,65.526,1.479l142.481-.192c11.888,0,23.645.26,35.329.365,7.278.065,22.474.124,29.7-1.284,5.6-1.09,3.129-.712,3.926.153.96-.627,2.7-1.453,3.8-2.075,1.262-.71,2.1-1.394,3.341-2.021l-1.4.1c-1.848,1.057-7.4,2.97-10.523,2.418Z" transform="translate(-501.275 -9831.874)"/><path class="j" d="M849.416,10556.887c-.8-.865,1.676-1.244-3.926-.152-7.225,1.408-22.422,1.348-29.7,1.282-11.685-.1-23.441-.364-35.329-.364l-142.481.191c-12.272-.026-53.749.818-65.526-1.478-.469-.092-1.51-.431-1.814-.465-2.544-.274-.975-.292-1.561.428,3.334.425,6.766,2.819,14.937,2.7,5.952-.086,11.906-.039,17.858-.045l213.915,0c4.967,0,22.19.359,26.334-.5,1.821-.375,5.9-1.574,7.292-1.6Z" transform="translate(-532.351 -9874.452)"/><path class="k" d="M2436.332,349.176c1.167.653.937.636,2.668.671,1.159.023,2.351-.006,3.516-.01,4.571-.015,33.449.494,34.457-.454.561-.528,1.333-3.021-1.734-3.081-.751-.015-2.288-.058-4.219.03-.616.028-.886.029-1.934,0l-18.061.006c-.117,0-.545.006-.665.008-.087,0-.2.018-.283.018l-5.557-.076c-7.026-.135-8.569-.763-8.187,2.888Z" transform="translate(-2279.039 -323.821)"/><path class="l" d="M5436.69,2573.914c4.244.01,3.722.445,3.6-7.02-.368-23.091.6-48.078,0-70.7l-1.633-.048c-.443,12.689.019,26.135.1,38.908.034,5.8-.16,35.3.469,38.484l-2.533.371Z" transform="translate(-5085.802 -2335.047)"/><path class="m" d="M.166,2302.6l1.446.388c.312-6.145.038-35.125.6-38.027a28.9,28.9,0,0,0,.383-5.7c.069-4.764.308-3.226-.725-4.5a4.579,4.579,0,0,1-.529-.734c-1.367.51-1.305.658-1.3,2.5,0,.981.126,2.088.141,3.118.21,13.66-.493,30.359-.017,42.949Z" transform="translate(0.004 -2108.554)"/><path class="n" d="M2461.468,336.452c-1.007.949-29.885.439-34.457.454-1.164,0-2.356.033-3.515.01-1.731-.035-1.5-.018-2.668-.671-.382-3.65,1.162-3.022,8.188-2.888l5.557.076c.085,0,.2-.017.283-.018.119,0,.548-.008.665-.008l18.061-.006c1.047.027,1.317.026,1.934,0,1.93-.088,3.467-.045,4.219-.03,3.066.06,2.294,2.553,1.734,3.081Zm-40.292,1.151c3.771.575,37.013.618,40.38-.034,1.123-1.21,2.256-2.766.632-4.331-1.465-1.411-18.251-.736-20.813-.736-2.5,0-19.093-.58-20.619.564C2418.826,334.513,2419.911,336.267,2421.177,337.6Z" transform="translate(-2263.536 -310.891)"/><path class="o" d="M6.327,3292.429c-.131-3.833.245-8.755.288-12.827l.221-25.623c.09-8.27.182-6.065-.413-12.228-.014-.148-.089-.175-.135-.262,1.8-.145,1.58-.172,2.192-.888l-3.24.357c-.529,3.226-.059,38.48-.193,46.021-.072,4.051-.651,4.915,1.278,5.451Z" transform="translate(-4.594 -3031.45)"/><path class="p" d="M3273.668,292.778c-2.249-.975-1.986-1.288-1.295-3.876l3.077-.092C3274.96,290.825,3275.356,291.257,3273.668,292.778Zm4.658,1.687c-1.925.449-1.645.736-3.869.414a5.182,5.182,0,0,1,1.928-4.191,5.254,5.254,0,0,1,2.429.463c-.241-1.828-.392-2.369-1.412-3.515-1.534-1.722-.2-.658-1.009-2.407l-.756-.359-2.491.01c-1.17,3.31-5.165,3.983-2.867,7.99.831,1.45,1.719,1.808,3.406,2.308,2.452.727,2.874,1.511,4.641-.714Z" transform="translate(-3058.557 -266.485)"/><path class="q" d="M4.125,1439.432c.922-5.484.522-8.153.675-13.425.14-4.822.734-8.816.785-13.2l-1.259-1.377-1.2.6.1,26.873Z" transform="translate(-2.928 -1320.336)"/><path class="r" d="M3695.454,294.472a8.865,8.865,0,0,1,1.614-4.072,5.2,5.2,0,0,1,2.294.511c.648,3.721-.208,3.331-3.908,3.562Zm-1.018-1.916c-1.315-1.064-2.209-1.969-.389-4.247l2.9-.077a22.244,22.244,0,0,1-.838,2.216,2.935,2.935,0,0,1-1.671,2.109Zm1.018,1.916c.419.421-1.188.27.972.625a8.468,8.468,0,0,0,1.737-.081c2.647-1.894,2.522-3.827,1.208-6.707a4.09,4.09,0,0,0-1.069-1.383c-1.412-1.537.885-.629-1.358-2.033l-2.113-.233c-.953,2.173-3.509,2.544-3.667,5.374a3.917,3.917,0,0,0,4.289,4.436Z" transform="translate(-3452.925 -266.288)"/><path class="s" d="M3252.911,278.193c.811,1.748-.524.685,1.01,2.407,1.02,1.146,1.171,1.687,1.412,3.515-.1,1.811.308,1.806-.489,3.314-1.767,2.225-2.188,1.441-4.641.714-1.687-.5-2.575-.858-3.407-2.308-2.3-4.007,1.7-4.68,2.868-7.989l2.491-.01c-3-1.747-6.6,1.611-7.325,3.822-2.407,7.332,8.131,11.5,11.38,4.531a5.686,5.686,0,0,0-3.3-7.995Z" transform="translate(-3035.075 -259.449)"/><path class="p" d="M2095.456,287.71c-.618.31-.581-.012-.919.388.218,2.9-.016.5,1.064,2.374-1.15,1.242-.557,1.617-1.343,2.865-.909,1.442-.725-.444-1.039,1.695,0,.015.074,1.213.085,1.248.38,1.166.138.467.761,1.133-.3-2.282-.1-3.62,2.327-4.013a4.837,4.837,0,0,1,.961-2.2l.95-.874c5.035-.3,5.094,3.9,2.718,5.32,0-1.16.173-.082-.862-.562,1.021,3.592.116,4.591-3.794,4.238.808.84-1.12.281,1.514.8.188.037,1.515,0,1.761,0,1.746-2.693,4.27-3,4.674-5.8.52-3.6-1.4-5.448-4.48-5.964l-.346-.8c-.072.086-.153.207-.2.27l-.738.975c-.5.474-1.817,1.062-2.529.571-1.059-.729-.931.493-.563-1.666Z" transform="translate(-1958.121 -269.001)"/><path class="p" d="M1721.357,299.448a4.992,4.992,0,0,0-2.921,5.085,2.682,2.682,0,0,0,.984,2.184l.156-2.552,2.086-.493a15.8,15.8,0,0,0,1.306.952c.176-.777.418.153.156-1.212-.385-2,.356.078-.415-.731.819-.627.964-.319,2,.041l.1,2.508-1.658.17-.05,2.48,2.063.246c.051-.061,4.8-3.457,1.284-7.134-1.117-1.168-.882-.2-1.694-1.979l-.426-.013c-.055,2-.393,1.916-2.631,1.685l-.341-1.237Z" transform="translate(-1607.507 -279.703)"/><path class="t" d="M2152.948,266.3l.346.8c3.081.516,5,2.358,4.481,5.964-.4,2.8-2.928,3.109-4.674,5.8,1.825-.016,1.772-.04,2.939-.684.151-.083,1.066-.568,1.249-.7a7.025,7.025,0,0,0,1.818-9.006c-1.691-2.6-6.524-5.052-8.737-2.7,1.225-.128,1.957-.523,2.578.52Z" transform="translate(-2011.583 -247.742)"/><path class="u" d="M2077.447,270.724c-.385-.92.363-.3-.521-.8-.624-.666-.382.034-.761-1.133-.011-.034-.088-1.232-.085-1.248.314-2.139.131-.253,1.039-1.695.787-1.248.193-1.623,1.343-2.865-1.08-1.879-.846.527-1.064-2.374.338-.4.3-.077.919-.388l1.452-.669c2.212-2.349,7.046.1,8.737,2.7a7.026,7.026,0,0,1-1.818,9.006c-.183.128-1.1.613-1.249.7-1.167.644-1.114.668-2.939.684-.247,0-1.572.036-1.761,0-2.633-.522-.706.036-1.514-.8l-.521-.179c.657,1.683,4.044,1.641,5.8,1.16a7.391,7.391,0,0,0,2.4-12.884c-8.571-6.761-16.126,7.964-9.46,10.793Z" transform="translate(-1940.982 -241.512)"/><path class="v" d="M3677.958,291.386a8.465,8.465,0,0,1-1.738.081c-2.16-.355-.553-.2-.972-.625a3.917,3.917,0,0,1-4.29-4.437c.158-2.83,2.714-3.2,3.667-5.374l2.113.233c-5.962-2.76-10.123,7.038-4.584,10.359,1.228.736,3.811,1.1,5.039.465.933-.485.216-.108.765-.7Z" transform="translate(-3432.721 -262.658)"/><path class="w" d="M2104.752,379.975c.883.5.136-.119.521.8l1.258.931.52.179c3.911.354,4.816-.645,3.794-4.238-.945-.176-.595-.146-1.111-.818l-.743-.128c-.073,2.515,1.246.822,1.131,3.718l-2.624.526c-1.438-.388-1.639-.351-1.914-1.675.412-1.513.211-1.812,1.63-2.536.646-.329.08-.244,1.024-.256-.285-.509.19-.877-1.16-.518-2.426.392-2.63,1.731-2.327,4.012Z" transform="translate(-1968.808 -351.564)"/><path class="u" d="M2157.27,331.122c1.257.06,1,.061,1.7.775l-.006,2.291c.516.673.166.642,1.111.818,1.036.48.858-.6.862.562,2.376-1.416,2.317-5.62-2.718-5.32l-.95.875Z" transform="translate(-2018.038 -308.92)"/><path class="x" d="M3348.918,378.768c.8-1.508.386-1.5.489-3.314a5.25,5.25,0,0,0-2.429-.463,5.178,5.178,0,0,0-1.928,4.191c2.224.323,1.944.035,3.869-.414Z" transform="translate(-3129.149 -350.788)"/><path class="t" d="M1756.461,308.067l-2.384.107c.011.019-.226.96,2.108,1.1a6.106,6.106,0,0,0,2.571-.33,5.142,5.142,0,0,0-.643-9.739c.813,1.783.578.811,1.694,1.979,3.515,3.677-1.233,7.072-1.284,7.134l-2.063-.246Z" transform="translate(-1640.865 -279.89)"/><path class="y" d="M1733.99,374.425l1.3,1.27,2.384-.106.05-2.48-.184-.777a16.126,16.126,0,0,1-1.306-.952l-2.086.493Z" transform="translate(-1622.077 -347.411)"/><path class="z" d="M2119.24,388.843c1.494-.133,1.617.309,1.914,1.675l2.624-.526c.114-2.9-1.205-1.2-1.132-3.717l-.752-.222c-.944.012-.378-.074-1.024.256-1.419.724-1.218,1.022-1.63,2.536Z" transform="translate(-1982.462 -361.135)"/><path class="aa" d="M3757.76,377.652c3.7-.231,4.556.159,3.908-3.562a5.207,5.207,0,0,0-2.295-.511,8.858,8.858,0,0,0-1.614,4.072Z" transform="translate(-3515.231 -349.469)"/><path class="ab" d="M3721.45,344.314a2.936,2.936,0,0,0,1.671-2.109,22.088,22.088,0,0,0,.837-2.216l-2.9.077c-1.821,2.278-.926,3.184.389,4.247Z" transform="translate(-3479.94 -318.047)"/><path class="u" d="M3307.068,349.878c1.688-1.521,1.292-1.953,1.782-3.968l-3.078.092C3305.082,348.59,3304.819,348.9,3307.068,349.878Z" transform="translate(-3091.957 -323.585)"/><path class="ac" d="M2124.019,277.572c-.368,2.159-.5.936.563,1.666.713.491,2.032-.1,2.529-.571l.738-.975c.047-.063.128-.184.2-.27-.622-1.042-1.354-.648-2.578-.52Z" transform="translate(-1986.684 -258.863)"/><path class="x" d="M2142.37,346.2c1.35-.359.875.009,1.16.518l.753.222.743.128.006-2.291c-.7-.714-.443-.714-1.7-.775a4.847,4.847,0,0,0-.961,2.2Z" transform="translate(-2004.099 -321.798)"/><path class="r" d="M1785.209,352.75l.185.777,1.658-.17-.1-2.508c-1.039-.36-1.185-.669-2-.041.771.809.03-1.273.415.731.263,1.365.019.435-.156,1.212Z" transform="translate(-1669.748 -327.829)"/><path class="ac" d="M1763.991,299.457l.341,1.237c2.238.232,2.577.316,2.631-1.685l-2.973.447Z" transform="translate(-1650.141 -279.712)"/><path class="m" d="M5469.262,2421.307l-.431-2.007c-.983.546-.134-.576-.8.578-.554.959-.223.247-.369,1.527l1.6-.1Z" transform="translate(-5114.773 -2263.157)"/><path class="ad" d="M2121.144,430.678c-.3-1.366-.421-1.808-1.914-1.675C2119.506,430.327,2119.706,430.29,2121.144,430.678Z" transform="translate(-1982.453 -401.294)"/></g></svg>